<svg xmlns="http://www.w3.org/2000/svg" xmlns:xlink="http://www.w3.org/1999/xlink" width="118.285" height="29" viewBox="0 0 118.285 29">
  <defs>
    <clipPath id="clip-path">
      <path id="Path_2" data-name="Path 2" d="M0-65.289H100v20H0Z" transform="translate(0 65.289)" fill="none"/>
    </clipPath>
    <linearGradient id="linear-gradient" x2="1" gradientUnits="objectBoundingBox">
      <stop offset="0" stop-color="#00a0a3"/>
      <stop offset="1" stop-color="#4fbb7f"/>
    </linearGradient>
  </defs>
  <g id="myUpchar-logo-eng" transform="translate(-881.715 -1662)">
    <g id="myUpchar_-_Logo_-_Black" data-name="myUpchar - Logo - Black" transform="translate(881.715 1662)">
      <g id="Group_2" data-name="Group 2" clip-path="url(#clip-path)">
        <g id="Group_1" data-name="Group 1" transform="translate(-0.003)">
          <path id="Path_1" data-name="Path 1" d="M-91.086-15.059a1.254,1.254,0,0,0,1.254-1.254,1.254,1.254,0,0,0-1.254-1.254,1.254,1.254,0,0,0-1.254,1.254,1.254,1.254,0,0,0,1.254,1.254m-6.572-2.923a1.864,1.864,0,0,0,1.864-1.864,1.864,1.864,0,0,0-1.864-1.864,1.864,1.864,0,0,0-1.864,1.864,1.864,1.864,0,0,0,1.864,1.864m6.464,3.664L-92.612-12.9v1.161a14.15,14.15,0,0,1-.066,1.542,1.527,1.527,0,0,1-.046.2,1.6,1.6,0,0,1-.527.8,1.376,1.376,0,0,1-.864.274,1.334,1.334,0,0,1-.858-.277,1.554,1.554,0,0,1-.5-.775,6.8,6.8,0,0,1-.157-1.787v-3.613l-1.886-1.887h-2.243v4.689a14.157,14.157,0,0,0,.335,3.77A4.423,4.423,0,0,0-97.8-6.472a5.052,5.052,0,0,0,3.031.837,5.185,5.185,0,0,0,2.848-.717,4.46,4.46,0,0,0,1.7-2.057,11.851,11.851,0,0,0,.471-4.084v-1.824Zm58.715-3.244a2.556,2.556,0,0,0-1.445.44,3.063,3.063,0,0,0-1.057,1.288V-17.27h-2.451V-5.877h2.839v-4.607l-.01-.554a7.465,7.465,0,0,1,.456-3.2,1.308,1.308,0,0,1,1.114-.817,1.97,1.97,0,0,1,.828.251l.89-2.462a2.672,2.672,0,0,0-1.163-.294m-9.958,8.427A2.945,2.945,0,0,1-44.67-8.2a2.894,2.894,0,0,1-2.2-.953,3.415,3.415,0,0,1-.891-2.43,3.378,3.378,0,0,1,.877-2.4,2.888,2.888,0,0,1,2.2-.938A2.985,2.985,0,0,1-42.437-14a3.329,3.329,0,0,1,.888,2.409,3.423,3.423,0,0,1-.888,2.456m.762-8.132v1.256a5.269,5.269,0,0,0-1.664-1.162,4.813,4.813,0,0,0-1.925-.388,4.964,4.964,0,0,0-3.785,1.687,6.116,6.116,0,0,0-1.559,4.324A5.973,5.973,0,0,0-49-7.3a5.071,5.071,0,0,0,3.818,1.712,4.7,4.7,0,0,0,1.824-.351,5.609,5.609,0,0,0,1.679-1.146v1.2h2.858V-17.27Zm-14.192-.294a4.342,4.342,0,0,0-1.717.362,6.527,6.527,0,0,0-1.687,1.083v-5.55h-2.836V-5.877h2.838v-4.575a12.987,12.987,0,0,1,.125-2.346,3.049,3.049,0,0,1,.866-1.571,2.119,2.119,0,0,1,1.492-.576,1.808,1.808,0,0,1,1.125.346,1.87,1.87,0,0,1,.644,1.049,12.331,12.331,0,0,1,.188,2.681v4.993h2.815v-7.53a4.1,4.1,0,0,0-1-2.985,3.868,3.868,0,0,0-2.859-1.173M-69.1-14.9a4,4,0,0,1,1.536.274,4.035,4.035,0,0,1,1.325.974l2.382-1.31a5.794,5.794,0,0,0-2.21-1.921,6.716,6.716,0,0,0-3.047-.676,6.889,6.889,0,0,0-3.315.8,5.837,5.837,0,0,0-2.31,2.189,5.862,5.862,0,0,0-.827,3.047,5.837,5.837,0,0,0,1.7,4.168,6.2,6.2,0,0,0,4.706,1.78,6.147,6.147,0,0,0,5.173-2.383L-66.24-9.509A3.645,3.645,0,0,1-69.226-8.2a3.457,3.457,0,0,1-2.506-.919,3.151,3.151,0,0,1-.954-2.374,3.258,3.258,0,0,1,.991-2.452,3.576,3.576,0,0,1,2.6-.955M-80.284-9.15a2.908,2.908,0,0,1-2.2.953,2.964,2.964,0,0,1-2.242-.937,3.42,3.42,0,0,1-.889-2.456A3.325,3.325,0,0,1-84.729-14a2.99,2.99,0,0,1,2.242-.922,2.918,2.918,0,0,1,2.22.938,3.374,3.374,0,0,1,.878,2.4,3.41,3.41,0,0,1-.9,2.429m2.183-6.723A4.974,4.974,0,0,0-81.9-17.565a4.826,4.826,0,0,0-1.927.388A5.381,5.381,0,0,0-85.5-16.015V-17.27h-2.838V-1.708H-85.5V-7.08a5.585,5.585,0,0,0,1.687,1.146,4.749,4.749,0,0,0,1.833.351A5.079,5.079,0,0,0-78.154-7.3a5.968,5.968,0,0,0,1.613-4.255A6.115,6.115,0,0,0-78.1-15.88m-29.253,5.756-2.96-7.15h-2.922L-108.9-6.726l-2.343,5.016h2.953l7.135-15.56h-2.927Zm-6.907-5.4a7.888,7.888,0,0,1,.4,2.964v6.68h-2.879v-5.781a4.945,4.945,0,0,0-.482-2.623,1.65,1.65,0,0,0-1.445-.686,2.2,2.2,0,0,0-1.314.42,2.479,2.479,0,0,0-.864,1.157,7.2,7.2,0,0,0-.283,2.371V-5.88h-2.879V-11.4a7.77,7.77,0,0,0-.228-2.215,2,2,0,0,0-.678-1.021A1.784,1.784,0,0,0-126-14.967a2.15,2.15,0,0,0-1.3.425,2.527,2.527,0,0,0-.871,1.186,7.342,7.342,0,0,0-.289,2.409v5.071h-2.859V-17.27h2.859v1.309a4.884,4.884,0,0,1,1.629-1.2,4.773,4.773,0,0,1,1.955-.4,3.635,3.635,0,0,1,1.928.523,3.782,3.782,0,0,1,1.383,1.529,4.614,4.614,0,0,1,1.671-1.529,4.566,4.566,0,0,1,2.165-.523,4.006,4.006,0,0,1,2.137.565,3.269,3.269,0,0,1,1.326,1.477" transform="translate(131.319 21.711)" fill="url(#linear-gradient)"/>
        </g>
      </g>
    </g>
    <text id="Digital_Hospital" data-name="Digital Hospital" transform="translate(932 1688)" font-size="9" font-family="Poppins-Regular, Poppins"><tspan x="0" y="0">Digital Hospital</tspan></text>
  </g>
</svg>
